<mxfile host="app.diagrams.net" agent="Mozilla/5.0 (Windows NT 10.0; Win64; x64) AppleWebKit/537.36 (KHTML, like Gecko) Chrome/128.0.0.0 Safari/537.36" version="24.7.14">
  <diagram name="第 1 页" id="9qzJEbWtO-vEJkkcob2F">
    <mxGraphModel dx="2074" dy="1132" grid="1" gridSize="10" guides="1" tooltips="1" connect="1" arrows="1" fold="1" page="1" pageScale="1" pageWidth="1100" pageHeight="850" math="0" shadow="0">
      <root>
        <mxCell id="0" />
        <mxCell id="1" parent="0" />
        <mxCell id="qFeWlYgozA7GguslPpDB-1" value="" style="shape=mxgraph.cisco.misc.ip_dsl;sketch=0;html=1;pointerEvents=1;dashed=0;fillColor=#036897;strokeColor=#ffffff;strokeWidth=2;verticalLabelPosition=bottom;verticalAlign=top;align=center;outlineConnect=0;" vertex="1" parent="1">
          <mxGeometry x="870" y="44.5" width="70" height="64" as="geometry" />
        </mxCell>
        <mxCell id="qFeWlYgozA7GguslPpDB-19" value="" style="edgeStyle=orthogonalEdgeStyle;rounded=0;orthogonalLoop=1;jettySize=auto;html=1;entryX=0.5;entryY=0.32;entryDx=0;entryDy=0;entryPerimeter=0;endArrow=none;endFill=0;" edge="1" parent="1" source="qFeWlYgozA7GguslPpDB-2" target="qFeWlYgozA7GguslPpDB-11">
          <mxGeometry relative="1" as="geometry" />
        </mxCell>
        <mxCell id="qFeWlYgozA7GguslPpDB-30" style="rounded=0;orthogonalLoop=1;jettySize=auto;html=1;endArrow=none;endFill=0;" edge="1" parent="1" source="qFeWlYgozA7GguslPpDB-2" target="qFeWlYgozA7GguslPpDB-16">
          <mxGeometry relative="1" as="geometry" />
        </mxCell>
        <mxCell id="qFeWlYgozA7GguslPpDB-2" value="FTTH modem" style="shape=mxgraph.cisco.modems_and_phones.modem;html=1;pointerEvents=1;dashed=0;fillColor=#036897;strokeColor=#ffffff;strokeWidth=2;verticalLabelPosition=bottom;verticalAlign=top;align=center;outlineConnect=0;" vertex="1" parent="1">
          <mxGeometry x="432.5" y="108.5" width="77" height="27" as="geometry" />
        </mxCell>
        <mxCell id="qFeWlYgozA7GguslPpDB-4" style="edgeStyle=orthogonalEdgeStyle;rounded=0;orthogonalLoop=1;jettySize=auto;html=1;exitX=0.5;exitY=1;exitDx=0;exitDy=0;exitPerimeter=0;" edge="1" parent="1" source="qFeWlYgozA7GguslPpDB-2" target="qFeWlYgozA7GguslPpDB-2">
          <mxGeometry relative="1" as="geometry" />
        </mxCell>
        <mxCell id="qFeWlYgozA7GguslPpDB-31" style="rounded=0;orthogonalLoop=1;jettySize=auto;html=1;endArrow=none;endFill=0;" edge="1" parent="1" source="qFeWlYgozA7GguslPpDB-5" target="qFeWlYgozA7GguslPpDB-12">
          <mxGeometry relative="1" as="geometry" />
        </mxCell>
        <mxCell id="qFeWlYgozA7GguslPpDB-5" value="North Switch" style="shape=mxgraph.cisco.switches.workgroup_switch;sketch=0;html=1;pointerEvents=1;dashed=0;fillColor=#036897;strokeColor=#ffffff;strokeWidth=2;verticalLabelPosition=bottom;verticalAlign=top;align=center;outlineConnect=0;" vertex="1" parent="1">
          <mxGeometry x="420.5" y="335.9" width="101" height="50" as="geometry" />
        </mxCell>
        <mxCell id="qFeWlYgozA7GguslPpDB-7" value="South Switch" style="shape=mxgraph.cisco.switches.workgroup_switch;sketch=0;html=1;pointerEvents=1;dashed=0;fillColor=#036897;strokeColor=#ffffff;strokeWidth=2;verticalLabelPosition=bottom;verticalAlign=top;align=center;outlineConnect=0;" vertex="1" parent="1">
          <mxGeometry x="421" y="870" width="101" height="50" as="geometry" />
        </mxCell>
        <mxCell id="qFeWlYgozA7GguslPpDB-8" value="RZ&#39;s PC" style="image;points=[];aspect=fixed;html=1;align=center;shadow=0;dashed=0;image=img/lib/allied_telesis/computer_and_terminals/Personal_Computer.svg;" vertex="1" parent="1">
          <mxGeometry x="308.2" y="1050" width="45.6" height="61.800000000000004" as="geometry" />
        </mxCell>
        <mxCell id="qFeWlYgozA7GguslPpDB-9" value="RZ&#39;s Mac" style="image;points=[];aspect=fixed;html=1;align=center;shadow=0;dashed=0;image=img/lib/allied_telesis/computer_and_terminals/Personal_Computer.svg;" vertex="1" parent="1">
          <mxGeometry x="448.2" y="1050" width="45.6" height="61.800000000000004" as="geometry" />
        </mxCell>
        <mxCell id="qFeWlYgozA7GguslPpDB-10" value="RZ&#39;s PI" style="image;points=[];aspect=fixed;html=1;align=center;shadow=0;dashed=0;image=img/lib/allied_telesis/computer_and_terminals/Personal_Computer.svg;" vertex="1" parent="1">
          <mxGeometry x="588.2" y="1050" width="45.6" height="61.800000000000004" as="geometry" />
        </mxCell>
        <mxCell id="qFeWlYgozA7GguslPpDB-20" value="" style="edgeStyle=orthogonalEdgeStyle;rounded=0;orthogonalLoop=1;jettySize=auto;html=1;endArrow=none;endFill=0;" edge="1" parent="1" source="qFeWlYgozA7GguslPpDB-11" target="qFeWlYgozA7GguslPpDB-5">
          <mxGeometry relative="1" as="geometry" />
        </mxCell>
        <mxCell id="qFeWlYgozA7GguslPpDB-11" value="Wireless Router" style="shape=mxgraph.cisco.routers.wireless_router;sketch=0;html=1;pointerEvents=1;dashed=0;fillColor=#036897;strokeColor=#ffffff;strokeWidth=2;verticalLabelPosition=bottom;verticalAlign=top;align=center;outlineConnect=0;" vertex="1" parent="1">
          <mxGeometry x="432.5" y="195" width="78" height="77" as="geometry" />
        </mxCell>
        <mxCell id="qFeWlYgozA7GguslPpDB-12" value="RDQ‘s computer" style="image;points=[];aspect=fixed;html=1;align=center;shadow=0;dashed=0;image=img/lib/allied_telesis/computer_and_terminals/Personal_Computer.svg;" vertex="1" parent="1">
          <mxGeometry x="720" y="324.1" width="45.6" height="61.800000000000004" as="geometry" />
        </mxCell>
        <mxCell id="qFeWlYgozA7GguslPpDB-13" value="HTPC" style="image;points=[];aspect=fixed;html=1;align=center;shadow=0;dashed=0;image=img/lib/allied_telesis/computer_and_terminals/Personal_Computer.svg;" vertex="1" parent="1">
          <mxGeometry x="720" y="470" width="45.6" height="61.800000000000004" as="geometry" />
        </mxCell>
        <mxCell id="qFeWlYgozA7GguslPpDB-14" value="TV" style="sketch=0;pointerEvents=1;shadow=0;dashed=0;html=1;strokeColor=none;fillColor=#505050;labelPosition=center;verticalLabelPosition=bottom;verticalAlign=top;outlineConnect=0;align=center;shape=mxgraph.office.devices.tv;" vertex="1" parent="1">
          <mxGeometry x="720" y="620" width="59" height="45" as="geometry" />
        </mxCell>
        <mxCell id="qFeWlYgozA7GguslPpDB-15" value="Door Camera" style="fontColor=#0066CC;verticalAlign=top;verticalLabelPosition=bottom;labelPosition=center;align=center;html=1;outlineConnect=0;fillColor=#CCCCCC;strokeColor=#6881B3;gradientColor=none;gradientDirection=north;strokeWidth=2;shape=mxgraph.networks.security_camera;" vertex="1" parent="1">
          <mxGeometry x="80" y="323" width="100" height="75" as="geometry" />
        </mxCell>
        <mxCell id="qFeWlYgozA7GguslPpDB-16" value="TV set-top box" style="shape=mxgraph.cisco.modems_and_phones.modem;html=1;pointerEvents=1;dashed=0;fillColor=#036897;strokeColor=#ffffff;strokeWidth=2;verticalLabelPosition=bottom;verticalAlign=top;align=center;outlineConnect=0;" vertex="1" parent="1">
          <mxGeometry x="711" y="220" width="77" height="27" as="geometry" />
        </mxCell>
        <mxCell id="qFeWlYgozA7GguslPpDB-17" value="" style="endArrow=none;html=1;rounded=0;entryX=0;entryY=0.5;entryDx=0;entryDy=0;entryPerimeter=0;exitX=1;exitY=0;exitDx=0;exitDy=0;exitPerimeter=0;shape=link;" edge="1" parent="1" source="qFeWlYgozA7GguslPpDB-2" target="qFeWlYgozA7GguslPpDB-1">
          <mxGeometry width="50" height="50" relative="1" as="geometry">
            <mxPoint x="520" y="570" as="sourcePoint" />
            <mxPoint x="570" y="520" as="targetPoint" />
          </mxGeometry>
        </mxCell>
        <mxCell id="qFeWlYgozA7GguslPpDB-18" value="光纤" style="edgeLabel;html=1;align=center;verticalAlign=middle;resizable=0;points=[];" vertex="1" connectable="0" parent="qFeWlYgozA7GguslPpDB-17">
          <mxGeometry x="-0.1035" y="1" relative="1" as="geometry">
            <mxPoint as="offset" />
          </mxGeometry>
        </mxCell>
        <mxCell id="qFeWlYgozA7GguslPpDB-21" value="Wireless AP" style="shape=mxgraph.cisco.wireless.wireless_transport;html=1;dashed=0;fillColor=#036897;strokeColor=#ffffff;strokeWidth=2;verticalLabelPosition=bottom;verticalAlign=top" vertex="1" parent="1">
          <mxGeometry x="750" y="870" width="77" height="54" as="geometry" />
        </mxCell>
        <mxCell id="qFeWlYgozA7GguslPpDB-22" value="Wireless AP For IoT" style="shape=mxgraph.cisco.wireless.wireless_transport;html=1;dashed=0;fillColor=#036897;strokeColor=#ffffff;strokeWidth=2;verticalLabelPosition=bottom;verticalAlign=top" vertex="1" parent="1">
          <mxGeometry x="260" y="333.5" width="77" height="54" as="geometry" />
        </mxCell>
        <mxCell id="qFeWlYgozA7GguslPpDB-25" style="edgeStyle=orthogonalEdgeStyle;rounded=0;orthogonalLoop=1;jettySize=auto;html=1;entryX=0.5;entryY=0;entryDx=0;entryDy=0;entryPerimeter=0;endArrow=none;endFill=0;" edge="1" parent="1" source="qFeWlYgozA7GguslPpDB-5" target="qFeWlYgozA7GguslPpDB-7">
          <mxGeometry relative="1" as="geometry" />
        </mxCell>
        <mxCell id="qFeWlYgozA7GguslPpDB-26" value="6类双绞 2.5G" style="edgeLabel;html=1;align=center;verticalAlign=middle;resizable=0;points=[];" vertex="1" connectable="0" parent="qFeWlYgozA7GguslPpDB-25">
          <mxGeometry x="-0.1824" y="-2" relative="1" as="geometry">
            <mxPoint as="offset" />
          </mxGeometry>
        </mxCell>
        <mxCell id="qFeWlYgozA7GguslPpDB-27" style="edgeStyle=orthogonalEdgeStyle;rounded=0;orthogonalLoop=1;jettySize=auto;html=1;entryX=0.16;entryY=0.23;entryDx=0;entryDy=0;entryPerimeter=0;endArrow=none;endFill=0;shape=link;" edge="1" parent="1" source="qFeWlYgozA7GguslPpDB-5" target="qFeWlYgozA7GguslPpDB-7">
          <mxGeometry relative="1" as="geometry">
            <Array as="points">
              <mxPoint x="437" y="510" />
              <mxPoint x="437" y="510" />
            </Array>
          </mxGeometry>
        </mxCell>
        <mxCell id="qFeWlYgozA7GguslPpDB-29" value="光纤 10G" style="edgeLabel;html=1;align=center;verticalAlign=middle;resizable=0;points=[];" vertex="1" connectable="0" parent="qFeWlYgozA7GguslPpDB-27">
          <mxGeometry x="-0.6283" y="-1" relative="1" as="geometry">
            <mxPoint as="offset" />
          </mxGeometry>
        </mxCell>
        <mxCell id="qFeWlYgozA7GguslPpDB-32" style="rounded=0;orthogonalLoop=1;jettySize=auto;html=1;endArrow=none;endFill=0;entryX=-0.029;entryY=0.712;entryDx=0;entryDy=0;entryPerimeter=0;" edge="1" parent="1" source="qFeWlYgozA7GguslPpDB-5" target="qFeWlYgozA7GguslPpDB-13">
          <mxGeometry relative="1" as="geometry">
            <mxPoint x="480" y="515" as="sourcePoint" />
            <mxPoint x="678" y="510" as="targetPoint" />
          </mxGeometry>
        </mxCell>
        <mxCell id="qFeWlYgozA7GguslPpDB-33" style="rounded=0;orthogonalLoop=1;jettySize=auto;html=1;endArrow=none;endFill=0;" edge="1" parent="1" source="qFeWlYgozA7GguslPpDB-5" target="qFeWlYgozA7GguslPpDB-14">
          <mxGeometry relative="1" as="geometry">
            <mxPoint x="503" y="510" as="sourcePoint" />
            <mxPoint x="711" y="638" as="targetPoint" />
          </mxGeometry>
        </mxCell>
        <mxCell id="qFeWlYgozA7GguslPpDB-34" style="rounded=0;orthogonalLoop=1;jettySize=auto;html=1;endArrow=none;endFill=0;entryX=0.361;entryY=0.043;entryDx=0;entryDy=0;entryPerimeter=0;" edge="1" parent="1" source="qFeWlYgozA7GguslPpDB-7" target="qFeWlYgozA7GguslPpDB-10">
          <mxGeometry relative="1" as="geometry">
            <mxPoint x="620" y="920" as="sourcePoint" />
            <mxPoint x="851" y="1154" as="targetPoint" />
          </mxGeometry>
        </mxCell>
        <mxCell id="qFeWlYgozA7GguslPpDB-35" style="rounded=0;orthogonalLoop=1;jettySize=auto;html=1;endArrow=none;endFill=0;entryX=0.639;entryY=-0.032;entryDx=0;entryDy=0;entryPerimeter=0;" edge="1" parent="1" source="qFeWlYgozA7GguslPpDB-7" target="qFeWlYgozA7GguslPpDB-9">
          <mxGeometry relative="1" as="geometry">
            <mxPoint x="448.2" y="970" as="sourcePoint" />
            <mxPoint x="560.2" y="1103" as="targetPoint" />
          </mxGeometry>
        </mxCell>
        <mxCell id="qFeWlYgozA7GguslPpDB-36" style="rounded=0;orthogonalLoop=1;jettySize=auto;html=1;endArrow=none;endFill=0;entryX=0.858;entryY=0;entryDx=0;entryDy=0;entryPerimeter=0;exitX=0;exitY=0.98;exitDx=0;exitDy=0;exitPerimeter=0;" edge="1" parent="1" source="qFeWlYgozA7GguslPpDB-7" target="qFeWlYgozA7GguslPpDB-8">
          <mxGeometry relative="1" as="geometry">
            <mxPoint x="348.8" y="920" as="sourcePoint" />
            <mxPoint x="353.8" y="1048" as="targetPoint" />
          </mxGeometry>
        </mxCell>
        <mxCell id="qFeWlYgozA7GguslPpDB-37" style="rounded=0;orthogonalLoop=1;jettySize=auto;html=1;endArrow=none;endFill=0;entryX=0;entryY=0.5;entryDx=0;entryDy=0;entryPerimeter=0;exitX=0.98;exitY=0.5;exitDx=0;exitDy=0;exitPerimeter=0;" edge="1" parent="1" source="qFeWlYgozA7GguslPpDB-7" target="qFeWlYgozA7GguslPpDB-21">
          <mxGeometry relative="1" as="geometry">
            <mxPoint x="521.5" y="610" as="sourcePoint" />
            <mxPoint x="752.5" y="844" as="targetPoint" />
          </mxGeometry>
        </mxCell>
        <mxCell id="qFeWlYgozA7GguslPpDB-38" value="客厅固话" style="shadow=0;dashed=0;html=1;strokeColor=none;fillColor=#505050;labelPosition=center;verticalLabelPosition=bottom;verticalAlign=top;shape=mxgraph.office.devices.phone_traditional;" vertex="1" parent="1">
          <mxGeometry x="140" y="95.5" width="48" height="40" as="geometry" />
        </mxCell>
        <mxCell id="qFeWlYgozA7GguslPpDB-39" style="rounded=0;orthogonalLoop=1;jettySize=auto;html=1;entryX=0;entryY=0.5;entryDx=0;entryDy=0;entryPerimeter=0;endArrow=none;endFill=0;" edge="1" parent="1" source="qFeWlYgozA7GguslPpDB-38" target="qFeWlYgozA7GguslPpDB-2">
          <mxGeometry relative="1" as="geometry" />
        </mxCell>
        <mxCell id="qFeWlYgozA7GguslPpDB-40" value="NAS" style="image;points=[];aspect=fixed;html=1;align=center;shadow=0;dashed=0;image=img/lib/allied_telesis/storage/Datacenter_Server_Rack_Storage_Unit_Small.svg;" vertex="1" parent="1">
          <mxGeometry x="250" y="470" width="77.4" height="67.2" as="geometry" />
        </mxCell>
        <mxCell id="qFeWlYgozA7GguslPpDB-41" style="rounded=0;orthogonalLoop=1;jettySize=auto;html=1;endArrow=none;endFill=0;exitX=0.362;exitY=0.04;exitDx=0;exitDy=0;exitPerimeter=0;" edge="1" parent="1" source="qFeWlYgozA7GguslPpDB-40" target="qFeWlYgozA7GguslPpDB-5">
          <mxGeometry relative="1" as="geometry">
            <mxPoint x="189.7" y="425" as="sourcePoint" />
            <mxPoint x="387.7" y="420" as="targetPoint" />
          </mxGeometry>
        </mxCell>
      </root>
    </mxGraphModel>
  </diagram>
</mxfile>
